<mxfile host="app.diagrams.net" modified="2023-10-23T10:42:56.545Z" agent="Mozilla/5.0 (Windows NT 10.0; Win64; x64) AppleWebKit/537.36 (KHTML, like Gecko) Chrome/118.0.0.0 Safari/537.36" etag="sb5O3xNzflkeUv-BxjDo" version="22.0.6" type="device">
  <diagram id="C5RBs43oDa-KdzZeNtuy" name="Page-1">
    <mxGraphModel dx="2501" dy="790" grid="1" gridSize="10" guides="1" tooltips="1" connect="1" arrows="1" fold="1" page="1" pageScale="1" pageWidth="827" pageHeight="1169" math="0" shadow="0">
      <root>
        <mxCell id="WIyWlLk6GJQsqaUBKTNV-0" />
        <mxCell id="WIyWlLk6GJQsqaUBKTNV-1" parent="WIyWlLk6GJQsqaUBKTNV-0" />
        <mxCell id="76nuOp_ZVuQSCUPgEHM--0" value="ПРОДАЖА ЛЕКАРСТВ" style="rounded=0;whiteSpace=wrap;html=1;" vertex="1" parent="WIyWlLk6GJQsqaUBKTNV-1">
          <mxGeometry x="270" y="955" width="260" height="120" as="geometry" />
        </mxCell>
        <mxCell id="76nuOp_ZVuQSCUPgEHM--1" value="Закон РФ об ОЛС&lt;br&gt;" style="text;html=1;strokeColor=none;fillColor=none;align=center;verticalAlign=middle;whiteSpace=wrap;rounded=0;" vertex="1" parent="WIyWlLk6GJQsqaUBKTNV-1">
          <mxGeometry x="300" y="885" width="60" height="30" as="geometry" />
        </mxCell>
        <mxCell id="76nuOp_ZVuQSCUPgEHM--2" value="Гражданский кодекс РФ&lt;br&gt;" style="text;html=1;strokeColor=none;fillColor=none;align=center;verticalAlign=middle;whiteSpace=wrap;rounded=0;" vertex="1" parent="WIyWlLk6GJQsqaUBKTNV-1">
          <mxGeometry x="420" y="880" width="60" height="30" as="geometry" />
        </mxCell>
        <mxCell id="76nuOp_ZVuQSCUPgEHM--3" value="Данные Клиента&lt;br&gt;" style="text;html=1;strokeColor=none;fillColor=none;align=center;verticalAlign=middle;whiteSpace=wrap;rounded=0;" vertex="1" parent="WIyWlLk6GJQsqaUBKTNV-1">
          <mxGeometry x="140" y="1045" width="60" height="30" as="geometry" />
        </mxCell>
        <mxCell id="76nuOp_ZVuQSCUPgEHM--4" value="Информация о лекарстве&lt;br&gt;" style="text;html=1;strokeColor=none;fillColor=none;align=center;verticalAlign=middle;whiteSpace=wrap;rounded=0;" vertex="1" parent="WIyWlLk6GJQsqaUBKTNV-1">
          <mxGeometry x="150" y="1005" width="60" height="30" as="geometry" />
        </mxCell>
        <mxCell id="76nuOp_ZVuQSCUPgEHM--5" value="Список Лекарств" style="text;html=1;strokeColor=none;fillColor=none;align=center;verticalAlign=middle;whiteSpace=wrap;rounded=0;" vertex="1" parent="WIyWlLk6GJQsqaUBKTNV-1">
          <mxGeometry x="150" y="955" width="60" height="30" as="geometry" />
        </mxCell>
        <mxCell id="76nuOp_ZVuQSCUPgEHM--6" value="Клиент&lt;br&gt;" style="text;html=1;strokeColor=none;fillColor=none;align=center;verticalAlign=middle;whiteSpace=wrap;rounded=0;" vertex="1" parent="WIyWlLk6GJQsqaUBKTNV-1">
          <mxGeometry x="440" y="1115" width="60" height="30" as="geometry" />
        </mxCell>
        <mxCell id="76nuOp_ZVuQSCUPgEHM--7" value="Аптекарь&lt;br&gt;" style="text;html=1;strokeColor=none;fillColor=none;align=center;verticalAlign=middle;whiteSpace=wrap;rounded=0;" vertex="1" parent="WIyWlLk6GJQsqaUBKTNV-1">
          <mxGeometry x="310" y="1115" width="60" height="30" as="geometry" />
        </mxCell>
        <mxCell id="76nuOp_ZVuQSCUPgEHM--8" value="Учет продаж&lt;br&gt;" style="text;html=1;strokeColor=none;fillColor=none;align=center;verticalAlign=middle;whiteSpace=wrap;rounded=0;" vertex="1" parent="WIyWlLk6GJQsqaUBKTNV-1">
          <mxGeometry x="580" y="965" width="60" height="30" as="geometry" />
        </mxCell>
        <mxCell id="76nuOp_ZVuQSCUPgEHM--9" value="Чек" style="text;html=1;strokeColor=none;fillColor=none;align=center;verticalAlign=middle;whiteSpace=wrap;rounded=0;" vertex="1" parent="WIyWlLk6GJQsqaUBKTNV-1">
          <mxGeometry x="580" y="1025" width="50" height="30" as="geometry" />
        </mxCell>
        <mxCell id="76nuOp_ZVuQSCUPgEHM--12" value="" style="endArrow=classic;html=1;rounded=0;entryX=-0.008;entryY=0.125;entryDx=0;entryDy=0;entryPerimeter=0;" edge="1" parent="WIyWlLk6GJQsqaUBKTNV-1" source="76nuOp_ZVuQSCUPgEHM--5" target="76nuOp_ZVuQSCUPgEHM--0">
          <mxGeometry width="50" height="50" relative="1" as="geometry">
            <mxPoint x="360" y="815" as="sourcePoint" />
            <mxPoint x="410" y="765" as="targetPoint" />
          </mxGeometry>
        </mxCell>
        <mxCell id="76nuOp_ZVuQSCUPgEHM--13" value="" style="endArrow=classic;html=1;rounded=0;" edge="1" parent="WIyWlLk6GJQsqaUBKTNV-1" source="76nuOp_ZVuQSCUPgEHM--4" target="76nuOp_ZVuQSCUPgEHM--0">
          <mxGeometry width="50" height="50" relative="1" as="geometry">
            <mxPoint x="360" y="815" as="sourcePoint" />
            <mxPoint x="410" y="765" as="targetPoint" />
          </mxGeometry>
        </mxCell>
        <mxCell id="76nuOp_ZVuQSCUPgEHM--14" value="" style="endArrow=classic;html=1;rounded=0;entryX=-0.015;entryY=0.858;entryDx=0;entryDy=0;entryPerimeter=0;" edge="1" parent="WIyWlLk6GJQsqaUBKTNV-1" source="76nuOp_ZVuQSCUPgEHM--3" target="76nuOp_ZVuQSCUPgEHM--0">
          <mxGeometry width="50" height="50" relative="1" as="geometry">
            <mxPoint x="360" y="815" as="sourcePoint" />
            <mxPoint x="410" y="765" as="targetPoint" />
          </mxGeometry>
        </mxCell>
        <mxCell id="76nuOp_ZVuQSCUPgEHM--15" value="" style="endArrow=classic;html=1;rounded=0;entryX=0.25;entryY=0;entryDx=0;entryDy=0;" edge="1" parent="WIyWlLk6GJQsqaUBKTNV-1" target="76nuOp_ZVuQSCUPgEHM--0">
          <mxGeometry width="50" height="50" relative="1" as="geometry">
            <mxPoint x="335" y="905" as="sourcePoint" />
            <mxPoint x="410" y="765" as="targetPoint" />
          </mxGeometry>
        </mxCell>
        <mxCell id="76nuOp_ZVuQSCUPgEHM--16" value="" style="endArrow=classic;html=1;rounded=0;entryX=0.75;entryY=0;entryDx=0;entryDy=0;exitX=0.75;exitY=1;exitDx=0;exitDy=0;" edge="1" parent="WIyWlLk6GJQsqaUBKTNV-1" source="76nuOp_ZVuQSCUPgEHM--2" target="76nuOp_ZVuQSCUPgEHM--0">
          <mxGeometry width="50" height="50" relative="1" as="geometry">
            <mxPoint x="360" y="815" as="sourcePoint" />
            <mxPoint x="410" y="765" as="targetPoint" />
          </mxGeometry>
        </mxCell>
        <mxCell id="76nuOp_ZVuQSCUPgEHM--17" value="" style="endArrow=classic;html=1;rounded=0;exitX=1;exitY=0.25;exitDx=0;exitDy=0;" edge="1" parent="WIyWlLk6GJQsqaUBKTNV-1" source="76nuOp_ZVuQSCUPgEHM--0">
          <mxGeometry width="50" height="50" relative="1" as="geometry">
            <mxPoint x="360" y="815" as="sourcePoint" />
            <mxPoint x="580" y="985" as="targetPoint" />
          </mxGeometry>
        </mxCell>
        <mxCell id="76nuOp_ZVuQSCUPgEHM--18" value="" style="endArrow=classic;html=1;rounded=0;exitX=1;exitY=0.75;exitDx=0;exitDy=0;" edge="1" parent="WIyWlLk6GJQsqaUBKTNV-1" source="76nuOp_ZVuQSCUPgEHM--0">
          <mxGeometry width="50" height="50" relative="1" as="geometry">
            <mxPoint x="360" y="815" as="sourcePoint" />
            <mxPoint x="580" y="1045" as="targetPoint" />
          </mxGeometry>
        </mxCell>
        <mxCell id="76nuOp_ZVuQSCUPgEHM--19" value="" style="endArrow=classic;html=1;rounded=0;entryX=0.25;entryY=1;entryDx=0;entryDy=0;exitX=0.4;exitY=0.033;exitDx=0;exitDy=0;exitPerimeter=0;" edge="1" parent="WIyWlLk6GJQsqaUBKTNV-1" source="76nuOp_ZVuQSCUPgEHM--7" target="76nuOp_ZVuQSCUPgEHM--0">
          <mxGeometry width="50" height="50" relative="1" as="geometry">
            <mxPoint x="360" y="815" as="sourcePoint" />
            <mxPoint x="410" y="765" as="targetPoint" />
          </mxGeometry>
        </mxCell>
        <mxCell id="76nuOp_ZVuQSCUPgEHM--20" value="" style="endArrow=classic;html=1;rounded=0;entryX=0.75;entryY=1;entryDx=0;entryDy=0;exitX=0.4;exitY=-0.133;exitDx=0;exitDy=0;exitPerimeter=0;" edge="1" parent="WIyWlLk6GJQsqaUBKTNV-1" source="76nuOp_ZVuQSCUPgEHM--6" target="76nuOp_ZVuQSCUPgEHM--0">
          <mxGeometry width="50" height="50" relative="1" as="geometry">
            <mxPoint x="360" y="1015" as="sourcePoint" />
            <mxPoint x="410" y="965" as="targetPoint" />
          </mxGeometry>
        </mxCell>
        <mxCell id="76nuOp_ZVuQSCUPgEHM--21" value="Ввод паспортных данных клиента&lt;br&gt;" style="rounded=0;whiteSpace=wrap;html=1;" vertex="1" parent="WIyWlLk6GJQsqaUBKTNV-1">
          <mxGeometry x="310" y="150" width="120" height="60" as="geometry" />
        </mxCell>
        <mxCell id="76nuOp_ZVuQSCUPgEHM--22" value="Формирование чека&lt;br&gt;" style="rounded=0;whiteSpace=wrap;html=1;" vertex="1" parent="WIyWlLk6GJQsqaUBKTNV-1">
          <mxGeometry x="540" y="190" width="120" height="70" as="geometry" />
        </mxCell>
        <mxCell id="76nuOp_ZVuQSCUPgEHM--23" value="Учет продаж&lt;br&gt;" style="rounded=0;whiteSpace=wrap;html=1;" vertex="1" parent="WIyWlLk6GJQsqaUBKTNV-1">
          <mxGeometry x="810" y="150" width="120" height="175" as="geometry" />
        </mxCell>
        <mxCell id="76nuOp_ZVuQSCUPgEHM--24" value="Ввод информации о выбранном лекарстве&lt;br&gt;" style="rounded=0;whiteSpace=wrap;html=1;" vertex="1" parent="WIyWlLk6GJQsqaUBKTNV-1">
          <mxGeometry x="414" y="330" width="120" height="80" as="geometry" />
        </mxCell>
        <mxCell id="76nuOp_ZVuQSCUPgEHM--25" value="Получение информации о лекарствах&lt;br&gt;" style="rounded=0;whiteSpace=wrap;html=1;" vertex="1" parent="WIyWlLk6GJQsqaUBKTNV-1">
          <mxGeometry x="130" y="345" width="120" height="60" as="geometry" />
        </mxCell>
        <mxCell id="76nuOp_ZVuQSCUPgEHM--26" value="Гражданский кодекс РФ" style="text;html=1;strokeColor=none;fillColor=none;align=center;verticalAlign=middle;whiteSpace=wrap;rounded=0;" vertex="1" parent="WIyWlLk6GJQsqaUBKTNV-1">
          <mxGeometry x="330" y="40" width="60" height="30" as="geometry" />
        </mxCell>
        <mxCell id="76nuOp_ZVuQSCUPgEHM--27" value="Данные клиента" style="text;html=1;strokeColor=none;fillColor=none;align=center;verticalAlign=middle;whiteSpace=wrap;rounded=0;" vertex="1" parent="WIyWlLk6GJQsqaUBKTNV-1">
          <mxGeometry x="130" y="165" width="60" height="30" as="geometry" />
        </mxCell>
        <mxCell id="76nuOp_ZVuQSCUPgEHM--28" value="Паспортные данные клиента&lt;br&gt;" style="text;html=1;strokeColor=none;fillColor=none;align=center;verticalAlign=middle;whiteSpace=wrap;rounded=0;" vertex="1" parent="WIyWlLk6GJQsqaUBKTNV-1">
          <mxGeometry x="480" y="140" width="60" height="30" as="geometry" />
        </mxCell>
        <mxCell id="76nuOp_ZVuQSCUPgEHM--29" value="Чек" style="text;html=1;strokeColor=none;fillColor=none;align=center;verticalAlign=middle;whiteSpace=wrap;rounded=0;" vertex="1" parent="WIyWlLk6GJQsqaUBKTNV-1">
          <mxGeometry x="990" y="260" width="60" height="30" as="geometry" />
        </mxCell>
        <mxCell id="76nuOp_ZVuQSCUPgEHM--30" value="Данные о чеке&lt;br&gt;" style="text;html=1;strokeColor=none;fillColor=none;align=center;verticalAlign=middle;whiteSpace=wrap;rounded=0;" vertex="1" parent="WIyWlLk6GJQsqaUBKTNV-1">
          <mxGeometry x="700" y="250" width="60" height="30" as="geometry" />
        </mxCell>
        <mxCell id="76nuOp_ZVuQSCUPgEHM--31" value="Клиент" style="text;html=1;strokeColor=none;fillColor=none;align=center;verticalAlign=middle;whiteSpace=wrap;rounded=0;" vertex="1" parent="WIyWlLk6GJQsqaUBKTNV-1">
          <mxGeometry x="350" y="230" width="60" height="30" as="geometry" />
        </mxCell>
        <mxCell id="76nuOp_ZVuQSCUPgEHM--32" value="Закон РФ об ОЛС" style="text;html=1;strokeColor=none;fillColor=none;align=center;verticalAlign=middle;whiteSpace=wrap;rounded=0;" vertex="1" parent="WIyWlLk6GJQsqaUBKTNV-1">
          <mxGeometry x="160" y="290" width="60" height="30" as="geometry" />
        </mxCell>
        <mxCell id="76nuOp_ZVuQSCUPgEHM--33" value="Список Лекарств" style="text;html=1;strokeColor=none;fillColor=none;align=center;verticalAlign=middle;whiteSpace=wrap;rounded=0;" vertex="1" parent="WIyWlLk6GJQsqaUBKTNV-1">
          <mxGeometry x="20" y="345" width="60" height="30" as="geometry" />
        </mxCell>
        <mxCell id="76nuOp_ZVuQSCUPgEHM--34" value="Информация о выбранном лекарстве" style="text;html=1;strokeColor=none;fillColor=none;align=center;verticalAlign=middle;whiteSpace=wrap;rounded=0;" vertex="1" parent="WIyWlLk6GJQsqaUBKTNV-1">
          <mxGeometry x="290" y="315" width="60" height="30" as="geometry" />
        </mxCell>
        <mxCell id="76nuOp_ZVuQSCUPgEHM--35" value="Список Лекарств" style="text;html=1;strokeColor=none;fillColor=none;align=center;verticalAlign=middle;whiteSpace=wrap;rounded=0;" vertex="1" parent="WIyWlLk6GJQsqaUBKTNV-1">
          <mxGeometry x="300" y="400" width="60" height="30" as="geometry" />
        </mxCell>
        <mxCell id="76nuOp_ZVuQSCUPgEHM--36" value="Информация о лекарстве" style="text;html=1;strokeColor=none;fillColor=none;align=center;verticalAlign=middle;whiteSpace=wrap;rounded=0;rotation=0;" vertex="1" parent="WIyWlLk6GJQsqaUBKTNV-1">
          <mxGeometry x="530" y="280" width="60" height="30" as="geometry" />
        </mxCell>
        <mxCell id="76nuOp_ZVuQSCUPgEHM--37" value="Клиент&lt;br&gt;" style="text;html=1;strokeColor=none;fillColor=none;align=center;verticalAlign=middle;whiteSpace=wrap;rounded=0;" vertex="1" parent="WIyWlLk6GJQsqaUBKTNV-1">
          <mxGeometry x="444" y="440" width="60" height="30" as="geometry" />
        </mxCell>
        <mxCell id="76nuOp_ZVuQSCUPgEHM--38" value="Аптекарь" style="text;html=1;strokeColor=none;fillColor=none;align=center;verticalAlign=middle;whiteSpace=wrap;rounded=0;" vertex="1" parent="WIyWlLk6GJQsqaUBKTNV-1">
          <mxGeometry x="540" y="520" width="60" height="30" as="geometry" />
        </mxCell>
        <mxCell id="76nuOp_ZVuQSCUPgEHM--39" value="Учет продаж&lt;br&gt;" style="text;html=1;strokeColor=none;fillColor=none;align=center;verticalAlign=middle;whiteSpace=wrap;rounded=0;" vertex="1" parent="WIyWlLk6GJQsqaUBKTNV-1">
          <mxGeometry x="990" y="210" width="60" height="30" as="geometry" />
        </mxCell>
        <mxCell id="76nuOp_ZVuQSCUPgEHM--40" value="" style="endArrow=classic;html=1;rounded=0;entryX=0.417;entryY=0.167;entryDx=0;entryDy=0;entryPerimeter=0;" edge="1" parent="WIyWlLk6GJQsqaUBKTNV-1" source="76nuOp_ZVuQSCUPgEHM--26" target="76nuOp_ZVuQSCUPgEHM--21">
          <mxGeometry width="50" height="50" relative="1" as="geometry">
            <mxPoint x="340" y="380" as="sourcePoint" />
            <mxPoint x="390" y="330" as="targetPoint" />
          </mxGeometry>
        </mxCell>
        <mxCell id="76nuOp_ZVuQSCUPgEHM--41" value="" style="endArrow=classic;html=1;rounded=0;entryX=0;entryY=0.5;entryDx=0;entryDy=0;exitX=1;exitY=0.5;exitDx=0;exitDy=0;" edge="1" parent="WIyWlLk6GJQsqaUBKTNV-1" source="76nuOp_ZVuQSCUPgEHM--27" target="76nuOp_ZVuQSCUPgEHM--21">
          <mxGeometry width="50" height="50" relative="1" as="geometry">
            <mxPoint x="340" y="380" as="sourcePoint" />
            <mxPoint x="390" y="330" as="targetPoint" />
          </mxGeometry>
        </mxCell>
        <mxCell id="76nuOp_ZVuQSCUPgEHM--42" value="" style="edgeStyle=elbowEdgeStyle;elbow=horizontal;endArrow=classic;html=1;curved=0;rounded=0;endSize=8;startSize=8;exitX=1;exitY=0.5;exitDx=0;exitDy=0;" edge="1" parent="WIyWlLk6GJQsqaUBKTNV-1" source="76nuOp_ZVuQSCUPgEHM--21" target="76nuOp_ZVuQSCUPgEHM--22">
          <mxGeometry width="50" height="50" relative="1" as="geometry">
            <mxPoint x="340" y="380" as="sourcePoint" />
            <mxPoint x="390" y="330" as="targetPoint" />
            <Array as="points">
              <mxPoint x="510" y="190" />
            </Array>
          </mxGeometry>
        </mxCell>
        <mxCell id="76nuOp_ZVuQSCUPgEHM--45" value="" style="endArrow=classic;html=1;rounded=0;exitX=1;exitY=0.75;exitDx=0;exitDy=0;entryX=0;entryY=0.5;entryDx=0;entryDy=0;" edge="1" parent="WIyWlLk6GJQsqaUBKTNV-1" source="76nuOp_ZVuQSCUPgEHM--22" target="76nuOp_ZVuQSCUPgEHM--23">
          <mxGeometry width="50" height="50" relative="1" as="geometry">
            <mxPoint x="520" y="380" as="sourcePoint" />
            <mxPoint x="770" y="245" as="targetPoint" />
          </mxGeometry>
        </mxCell>
        <mxCell id="76nuOp_ZVuQSCUPgEHM--46" value="" style="endArrow=classic;html=1;rounded=0;exitX=1;exitY=0.5;exitDx=0;exitDy=0;" edge="1" parent="WIyWlLk6GJQsqaUBKTNV-1" source="76nuOp_ZVuQSCUPgEHM--23">
          <mxGeometry width="50" height="50" relative="1" as="geometry">
            <mxPoint x="1240" y="380" as="sourcePoint" />
            <mxPoint x="1110" y="238" as="targetPoint" />
          </mxGeometry>
        </mxCell>
        <mxCell id="76nuOp_ZVuQSCUPgEHM--47" value="" style="endArrow=classic;html=1;rounded=0;entryX=0.5;entryY=0;entryDx=0;entryDy=0;" edge="1" parent="WIyWlLk6GJQsqaUBKTNV-1" source="76nuOp_ZVuQSCUPgEHM--32" target="76nuOp_ZVuQSCUPgEHM--25">
          <mxGeometry width="50" height="50" relative="1" as="geometry">
            <mxPoint x="110" y="380" as="sourcePoint" />
            <mxPoint x="160" y="330" as="targetPoint" />
          </mxGeometry>
        </mxCell>
        <mxCell id="76nuOp_ZVuQSCUPgEHM--48" value="" style="endArrow=classic;html=1;rounded=0;entryX=0;entryY=0.25;entryDx=0;entryDy=0;" edge="1" parent="WIyWlLk6GJQsqaUBKTNV-1" source="76nuOp_ZVuQSCUPgEHM--33" target="76nuOp_ZVuQSCUPgEHM--25">
          <mxGeometry width="50" height="50" relative="1" as="geometry">
            <mxPoint x="110" y="380" as="sourcePoint" />
            <mxPoint x="160" y="330" as="targetPoint" />
          </mxGeometry>
        </mxCell>
        <mxCell id="76nuOp_ZVuQSCUPgEHM--50" value="" style="endArrow=classic;html=1;rounded=0;exitX=1;exitY=0.25;exitDx=0;exitDy=0;" edge="1" parent="WIyWlLk6GJQsqaUBKTNV-1" source="76nuOp_ZVuQSCUPgEHM--25">
          <mxGeometry width="50" height="50" relative="1" as="geometry">
            <mxPoint x="360" y="380" as="sourcePoint" />
            <mxPoint x="410" y="360" as="targetPoint" />
          </mxGeometry>
        </mxCell>
        <mxCell id="76nuOp_ZVuQSCUPgEHM--51" value="" style="endArrow=classic;html=1;rounded=0;exitX=1;exitY=0.75;exitDx=0;exitDy=0;entryX=0;entryY=0.75;entryDx=0;entryDy=0;" edge="1" parent="WIyWlLk6GJQsqaUBKTNV-1" source="76nuOp_ZVuQSCUPgEHM--25" target="76nuOp_ZVuQSCUPgEHM--24">
          <mxGeometry width="50" height="50" relative="1" as="geometry">
            <mxPoint x="360" y="380" as="sourcePoint" />
            <mxPoint x="410" y="330" as="targetPoint" />
          </mxGeometry>
        </mxCell>
        <mxCell id="76nuOp_ZVuQSCUPgEHM--52" value="" style="endArrow=classic;html=1;rounded=0;exitX=0.5;exitY=0;exitDx=0;exitDy=0;entryX=0.5;entryY=1;entryDx=0;entryDy=0;" edge="1" parent="WIyWlLk6GJQsqaUBKTNV-1" source="76nuOp_ZVuQSCUPgEHM--37" target="76nuOp_ZVuQSCUPgEHM--24">
          <mxGeometry width="50" height="50" relative="1" as="geometry">
            <mxPoint x="360" y="380" as="sourcePoint" />
            <mxPoint x="410" y="330" as="targetPoint" />
          </mxGeometry>
        </mxCell>
        <mxCell id="76nuOp_ZVuQSCUPgEHM--53" value="" style="edgeStyle=elbowEdgeStyle;elbow=vertical;endArrow=classic;html=1;curved=0;rounded=0;endSize=8;startSize=8;exitX=1;exitY=0.5;exitDx=0;exitDy=0;entryX=0.5;entryY=1;entryDx=0;entryDy=0;" edge="1" parent="WIyWlLk6GJQsqaUBKTNV-1" source="76nuOp_ZVuQSCUPgEHM--24" target="76nuOp_ZVuQSCUPgEHM--22">
          <mxGeometry width="50" height="50" relative="1" as="geometry">
            <mxPoint x="680" y="380" as="sourcePoint" />
            <mxPoint x="730" y="330" as="targetPoint" />
          </mxGeometry>
        </mxCell>
        <mxCell id="76nuOp_ZVuQSCUPgEHM--54" value="" style="edgeStyle=elbowEdgeStyle;elbow=vertical;endArrow=classic;html=1;curved=0;rounded=0;endSize=8;startSize=8;exitX=0.5;exitY=0;exitDx=0;exitDy=0;entryX=0.5;entryY=1;entryDx=0;entryDy=0;" edge="1" parent="WIyWlLk6GJQsqaUBKTNV-1" source="76nuOp_ZVuQSCUPgEHM--38" target="76nuOp_ZVuQSCUPgEHM--25">
          <mxGeometry width="50" height="50" relative="1" as="geometry">
            <mxPoint x="300" y="380" as="sourcePoint" />
            <mxPoint x="350" y="330" as="targetPoint" />
            <Array as="points">
              <mxPoint x="370" y="530" />
            </Array>
          </mxGeometry>
        </mxCell>
        <mxCell id="76nuOp_ZVuQSCUPgEHM--55" value="" style="edgeStyle=elbowEdgeStyle;elbow=vertical;endArrow=classic;html=1;curved=0;rounded=0;endSize=8;startSize=8;exitX=0.5;exitY=0;exitDx=0;exitDy=0;entryX=0.75;entryY=1;entryDx=0;entryDy=0;" edge="1" parent="WIyWlLk6GJQsqaUBKTNV-1" source="76nuOp_ZVuQSCUPgEHM--38" target="76nuOp_ZVuQSCUPgEHM--22">
          <mxGeometry width="50" height="50" relative="1" as="geometry">
            <mxPoint x="660" y="380" as="sourcePoint" />
            <mxPoint x="710" y="330" as="targetPoint" />
          </mxGeometry>
        </mxCell>
        <mxCell id="76nuOp_ZVuQSCUPgEHM--56" value="" style="edgeStyle=elbowEdgeStyle;elbow=vertical;endArrow=classic;html=1;curved=0;rounded=0;endSize=8;startSize=8;entryX=0.5;entryY=1;entryDx=0;entryDy=0;" edge="1" parent="WIyWlLk6GJQsqaUBKTNV-1" target="76nuOp_ZVuQSCUPgEHM--23">
          <mxGeometry width="50" height="50" relative="1" as="geometry">
            <mxPoint x="560" y="530" as="sourcePoint" />
            <mxPoint x="800" y="330" as="targetPoint" />
            <Array as="points">
              <mxPoint x="730" y="530" />
            </Array>
          </mxGeometry>
        </mxCell>
        <mxCell id="76nuOp_ZVuQSCUPgEHM--57" value="Информация о лекарстве" style="text;html=1;strokeColor=none;fillColor=none;align=center;verticalAlign=middle;whiteSpace=wrap;rounded=0;" vertex="1" parent="WIyWlLk6GJQsqaUBKTNV-1">
          <mxGeometry x="1030" y="620" width="110" height="30" as="geometry" />
        </mxCell>
        <mxCell id="76nuOp_ZVuQSCUPgEHM--58" value="Учет стоимости лекарств&lt;br&gt;" style="rounded=0;whiteSpace=wrap;html=1;" vertex="1" parent="WIyWlLk6GJQsqaUBKTNV-1">
          <mxGeometry x="1250" y="595" width="120" height="60" as="geometry" />
        </mxCell>
        <mxCell id="76nuOp_ZVuQSCUPgEHM--59" value="Информация о выбранном лекарстве" style="text;html=1;strokeColor=none;fillColor=none;align=center;verticalAlign=middle;whiteSpace=wrap;rounded=0;" vertex="1" parent="WIyWlLk6GJQsqaUBKTNV-1">
          <mxGeometry x="1400" y="580" width="60" height="30" as="geometry" />
        </mxCell>
        <mxCell id="76nuOp_ZVuQSCUPgEHM--61" value="Проверка наличия лекарств" style="rounded=0;whiteSpace=wrap;html=1;" vertex="1" parent="WIyWlLk6GJQsqaUBKTNV-1">
          <mxGeometry x="1360" y="680" width="120" height="60" as="geometry" />
        </mxCell>
        <mxCell id="76nuOp_ZVuQSCUPgEHM--62" value="Список лекарств&lt;br&gt;" style="text;html=1;strokeColor=none;fillColor=none;align=center;verticalAlign=middle;whiteSpace=wrap;rounded=0;" vertex="1" parent="WIyWlLk6GJQsqaUBKTNV-1">
          <mxGeometry x="1510" y="670" width="60" height="30" as="geometry" />
        </mxCell>
        <mxCell id="76nuOp_ZVuQSCUPgEHM--63" value="Аптекарь" style="text;html=1;strokeColor=none;fillColor=none;align=center;verticalAlign=middle;whiteSpace=wrap;rounded=0;" vertex="1" parent="WIyWlLk6GJQsqaUBKTNV-1">
          <mxGeometry x="1301" y="820" width="60" height="30" as="geometry" />
        </mxCell>
        <mxCell id="76nuOp_ZVuQSCUPgEHM--64" value="" style="endArrow=classic;html=1;rounded=0;exitX=1;exitY=0.5;exitDx=0;exitDy=0;entryX=0.017;entryY=0.65;entryDx=0;entryDy=0;entryPerimeter=0;" edge="1" parent="WIyWlLk6GJQsqaUBKTNV-1" source="76nuOp_ZVuQSCUPgEHM--57" target="76nuOp_ZVuQSCUPgEHM--58">
          <mxGeometry width="50" height="50" relative="1" as="geometry">
            <mxPoint x="1290" y="680" as="sourcePoint" />
            <mxPoint x="1250" y="625" as="targetPoint" />
          </mxGeometry>
        </mxCell>
        <mxCell id="76nuOp_ZVuQSCUPgEHM--65" value="" style="endArrow=classic;html=1;rounded=0;exitX=1;exitY=0.5;exitDx=0;exitDy=0;" edge="1" parent="WIyWlLk6GJQsqaUBKTNV-1" source="76nuOp_ZVuQSCUPgEHM--58">
          <mxGeometry width="50" height="50" relative="1" as="geometry">
            <mxPoint x="1290" y="680" as="sourcePoint" />
            <mxPoint x="1510" y="625" as="targetPoint" />
          </mxGeometry>
        </mxCell>
        <mxCell id="76nuOp_ZVuQSCUPgEHM--67" value="" style="endArrow=classic;html=1;rounded=0;exitX=1;exitY=0.5;exitDx=0;exitDy=0;" edge="1" parent="WIyWlLk6GJQsqaUBKTNV-1" source="76nuOp_ZVuQSCUPgEHM--61">
          <mxGeometry width="50" height="50" relative="1" as="geometry">
            <mxPoint x="1290" y="680" as="sourcePoint" />
            <mxPoint x="1590" y="710" as="targetPoint" />
          </mxGeometry>
        </mxCell>
        <mxCell id="76nuOp_ZVuQSCUPgEHM--68" value="" style="edgeStyle=elbowEdgeStyle;elbow=vertical;endArrow=classic;html=1;curved=0;rounded=0;endSize=8;startSize=8;exitX=1;exitY=0.5;exitDx=0;exitDy=0;entryX=0.5;entryY=1;entryDx=0;entryDy=0;" edge="1" parent="WIyWlLk6GJQsqaUBKTNV-1" source="76nuOp_ZVuQSCUPgEHM--63" target="76nuOp_ZVuQSCUPgEHM--61">
          <mxGeometry width="50" height="50" relative="1" as="geometry">
            <mxPoint x="1290" y="680" as="sourcePoint" />
            <mxPoint x="1340" y="630" as="targetPoint" />
            <Array as="points">
              <mxPoint x="1390" y="835" />
            </Array>
          </mxGeometry>
        </mxCell>
        <mxCell id="76nuOp_ZVuQSCUPgEHM--69" value="" style="edgeStyle=elbowEdgeStyle;elbow=vertical;endArrow=classic;html=1;curved=0;rounded=0;endSize=8;startSize=8;exitX=0;exitY=0.5;exitDx=0;exitDy=0;entryX=0.25;entryY=1;entryDx=0;entryDy=0;" edge="1" parent="WIyWlLk6GJQsqaUBKTNV-1" source="76nuOp_ZVuQSCUPgEHM--63" target="76nuOp_ZVuQSCUPgEHM--58">
          <mxGeometry width="50" height="50" relative="1" as="geometry">
            <mxPoint x="1290" y="680" as="sourcePoint" />
            <mxPoint x="1340" y="630" as="targetPoint" />
            <Array as="points">
              <mxPoint x="1290" y="835" />
            </Array>
          </mxGeometry>
        </mxCell>
        <mxCell id="76nuOp_ZVuQSCUPgEHM--70" value="" style="edgeStyle=elbowEdgeStyle;elbow=vertical;endArrow=classic;html=1;curved=0;rounded=0;endSize=8;startSize=8;exitX=0.5;exitY=1;exitDx=0;exitDy=0;entryX=0;entryY=0.5;entryDx=0;entryDy=0;" edge="1" parent="WIyWlLk6GJQsqaUBKTNV-1" source="76nuOp_ZVuQSCUPgEHM--57" target="76nuOp_ZVuQSCUPgEHM--61">
          <mxGeometry width="50" height="50" relative="1" as="geometry">
            <mxPoint x="1290" y="680" as="sourcePoint" />
            <mxPoint x="1340" y="630" as="targetPoint" />
            <Array as="points">
              <mxPoint x="1250" y="710" />
            </Array>
          </mxGeometry>
        </mxCell>
        <mxCell id="76nuOp_ZVuQSCUPgEHM--71" value="Проверка паспортных данных клиента" style="rounded=0;whiteSpace=wrap;html=1;" vertex="1" parent="WIyWlLk6GJQsqaUBKTNV-1">
          <mxGeometry x="1500" y="230" width="120" height="60" as="geometry" />
        </mxCell>
        <mxCell id="76nuOp_ZVuQSCUPgEHM--72" value="Учет выбранных лекарств" style="rounded=0;whiteSpace=wrap;html=1;" vertex="1" parent="WIyWlLk6GJQsqaUBKTNV-1">
          <mxGeometry x="1654" y="330" width="120" height="60" as="geometry" />
        </mxCell>
        <mxCell id="76nuOp_ZVuQSCUPgEHM--73" value="Формирование индивидуального номера чека&lt;br&gt;" style="rounded=0;whiteSpace=wrap;html=1;" vertex="1" parent="WIyWlLk6GJQsqaUBKTNV-1">
          <mxGeometry x="1720" y="450" width="120" height="100" as="geometry" />
        </mxCell>
        <mxCell id="76nuOp_ZVuQSCUPgEHM--74" value="Паспортные Данные&amp;nbsp; клиента" style="text;html=1;strokeColor=none;fillColor=none;align=center;verticalAlign=middle;whiteSpace=wrap;rounded=0;" vertex="1" parent="WIyWlLk6GJQsqaUBKTNV-1">
          <mxGeometry x="1410" y="210" width="60" height="50" as="geometry" />
        </mxCell>
        <mxCell id="76nuOp_ZVuQSCUPgEHM--78" value="Данные о чеке" style="text;html=1;strokeColor=none;fillColor=none;align=center;verticalAlign=middle;whiteSpace=wrap;rounded=0;" vertex="1" parent="WIyWlLk6GJQsqaUBKTNV-1">
          <mxGeometry x="1860" y="470" width="60" height="30" as="geometry" />
        </mxCell>
        <mxCell id="76nuOp_ZVuQSCUPgEHM--79" value="Информация о лекарстве" style="text;html=1;strokeColor=none;fillColor=none;align=center;verticalAlign=middle;whiteSpace=wrap;rounded=0;" vertex="1" parent="WIyWlLk6GJQsqaUBKTNV-1">
          <mxGeometry x="1380" y="325" width="60" height="30" as="geometry" />
        </mxCell>
        <mxCell id="76nuOp_ZVuQSCUPgEHM--83" value="" style="endArrow=classic;html=1;rounded=0;entryX=0;entryY=0.5;entryDx=0;entryDy=0;" edge="1" parent="WIyWlLk6GJQsqaUBKTNV-1" target="76nuOp_ZVuQSCUPgEHM--71">
          <mxGeometry width="50" height="50" relative="1" as="geometry">
            <mxPoint x="1360" y="260" as="sourcePoint" />
            <mxPoint x="1660" y="230" as="targetPoint" />
          </mxGeometry>
        </mxCell>
        <mxCell id="76nuOp_ZVuQSCUPgEHM--86" value="" style="edgeStyle=elbowEdgeStyle;elbow=vertical;endArrow=classic;html=1;curved=0;rounded=0;endSize=8;startSize=8;entryX=0;entryY=0.5;entryDx=0;entryDy=0;" edge="1" parent="WIyWlLk6GJQsqaUBKTNV-1" target="76nuOp_ZVuQSCUPgEHM--72">
          <mxGeometry width="50" height="50" relative="1" as="geometry">
            <mxPoint x="1470" y="260" as="sourcePoint" />
            <mxPoint x="1660" y="230" as="targetPoint" />
            <Array as="points">
              <mxPoint x="1570" y="360" />
            </Array>
          </mxGeometry>
        </mxCell>
        <mxCell id="76nuOp_ZVuQSCUPgEHM--89" value="" style="endArrow=classic;html=1;rounded=0;exitX=1;exitY=0.5;exitDx=0;exitDy=0;" edge="1" parent="WIyWlLk6GJQsqaUBKTNV-1" source="76nuOp_ZVuQSCUPgEHM--73">
          <mxGeometry width="50" height="50" relative="1" as="geometry">
            <mxPoint x="1610" y="280" as="sourcePoint" />
            <mxPoint x="1940" y="500" as="targetPoint" />
          </mxGeometry>
        </mxCell>
        <mxCell id="76nuOp_ZVuQSCUPgEHM--91" value="Аптекарь" style="text;html=1;strokeColor=none;fillColor=none;align=center;verticalAlign=middle;whiteSpace=wrap;rounded=0;" vertex="1" parent="WIyWlLk6GJQsqaUBKTNV-1">
          <mxGeometry x="1594" y="540" width="60" height="30" as="geometry" />
        </mxCell>
        <mxCell id="76nuOp_ZVuQSCUPgEHM--92" value="" style="edgeStyle=elbowEdgeStyle;elbow=vertical;endArrow=classic;html=1;curved=0;rounded=0;endSize=8;startSize=8;exitX=1;exitY=0.5;exitDx=0;exitDy=0;entryX=0.5;entryY=1;entryDx=0;entryDy=0;" edge="1" parent="WIyWlLk6GJQsqaUBKTNV-1" source="76nuOp_ZVuQSCUPgEHM--91" target="76nuOp_ZVuQSCUPgEHM--72">
          <mxGeometry width="50" height="50" relative="1" as="geometry">
            <mxPoint x="1610" y="380" as="sourcePoint" />
            <mxPoint x="1660" y="330" as="targetPoint" />
            <Array as="points">
              <mxPoint x="1680" y="555" />
            </Array>
          </mxGeometry>
        </mxCell>
        <mxCell id="76nuOp_ZVuQSCUPgEHM--93" value="" style="edgeStyle=elbowEdgeStyle;elbow=vertical;endArrow=classic;html=1;curved=0;rounded=0;endSize=8;startSize=8;exitX=0;exitY=0.5;exitDx=0;exitDy=0;entryX=0.5;entryY=1;entryDx=0;entryDy=0;" edge="1" parent="WIyWlLk6GJQsqaUBKTNV-1" source="76nuOp_ZVuQSCUPgEHM--91" target="76nuOp_ZVuQSCUPgEHM--71">
          <mxGeometry width="50" height="50" relative="1" as="geometry">
            <mxPoint x="1610" y="380" as="sourcePoint" />
            <mxPoint x="1660" y="330" as="targetPoint" />
            <Array as="points">
              <mxPoint x="1570" y="555" />
            </Array>
          </mxGeometry>
        </mxCell>
        <mxCell id="76nuOp_ZVuQSCUPgEHM--94" value="" style="endArrow=classic;html=1;rounded=0;entryX=0;entryY=0.75;entryDx=0;entryDy=0;" edge="1" parent="WIyWlLk6GJQsqaUBKTNV-1" target="76nuOp_ZVuQSCUPgEHM--72">
          <mxGeometry width="50" height="50" relative="1" as="geometry">
            <mxPoint x="1360" y="375" as="sourcePoint" />
            <mxPoint x="1660" y="330" as="targetPoint" />
          </mxGeometry>
        </mxCell>
        <mxCell id="76nuOp_ZVuQSCUPgEHM--96" value="" style="edgeStyle=elbowEdgeStyle;elbow=vertical;endArrow=classic;html=1;curved=0;rounded=0;endSize=8;startSize=8;entryX=0;entryY=0.5;entryDx=0;entryDy=0;" edge="1" parent="WIyWlLk6GJQsqaUBKTNV-1">
          <mxGeometry width="50" height="50" relative="1" as="geometry">
            <mxPoint x="1440" y="380" as="sourcePoint" />
            <mxPoint x="1720" y="520" as="targetPoint" />
            <Array as="points">
              <mxPoint x="1580" y="520" />
            </Array>
          </mxGeometry>
        </mxCell>
        <mxCell id="76nuOp_ZVuQSCUPgEHM--97" value="" style="edgeStyle=elbowEdgeStyle;elbow=vertical;endArrow=classic;html=1;curved=0;rounded=0;endSize=8;startSize=8;entryX=0;entryY=0.25;entryDx=0;entryDy=0;" edge="1" parent="WIyWlLk6GJQsqaUBKTNV-1" target="76nuOp_ZVuQSCUPgEHM--73">
          <mxGeometry width="50" height="50" relative="1" as="geometry">
            <mxPoint x="1610" y="360" as="sourcePoint" />
            <mxPoint x="1660" y="330" as="targetPoint" />
            <Array as="points">
              <mxPoint x="1670" y="475" />
            </Array>
          </mxGeometry>
        </mxCell>
        <mxCell id="76nuOp_ZVuQSCUPgEHM--101" value="Информация о лекарстве" style="text;html=1;strokeColor=none;fillColor=none;align=center;verticalAlign=middle;whiteSpace=wrap;rounded=0;" vertex="1" parent="WIyWlLk6GJQsqaUBKTNV-1">
          <mxGeometry x="10" y="375" width="60" height="30" as="geometry" />
        </mxCell>
        <mxCell id="76nuOp_ZVuQSCUPgEHM--102" value="" style="endArrow=classic;html=1;rounded=0;exitX=1;exitY=0.5;exitDx=0;exitDy=0;entryX=0;entryY=0.75;entryDx=0;entryDy=0;" edge="1" parent="WIyWlLk6GJQsqaUBKTNV-1" source="76nuOp_ZVuQSCUPgEHM--101" target="76nuOp_ZVuQSCUPgEHM--25">
          <mxGeometry width="50" height="50" relative="1" as="geometry">
            <mxPoint x="690" y="280" as="sourcePoint" />
            <mxPoint x="740" y="230" as="targetPoint" />
          </mxGeometry>
        </mxCell>
        <mxCell id="76nuOp_ZVuQSCUPgEHM--104" value="" style="endArrow=classic;html=1;rounded=0;exitX=1;exitY=0.75;exitDx=0;exitDy=0;" edge="1" parent="WIyWlLk6GJQsqaUBKTNV-1" source="76nuOp_ZVuQSCUPgEHM--23">
          <mxGeometry width="50" height="50" relative="1" as="geometry">
            <mxPoint x="690" y="280" as="sourcePoint" />
            <mxPoint x="1110" y="280" as="targetPoint" />
          </mxGeometry>
        </mxCell>
        <mxCell id="76nuOp_ZVuQSCUPgEHM--105" value="" style="rounded=0;whiteSpace=wrap;html=1;" vertex="1" parent="WIyWlLk6GJQsqaUBKTNV-1">
          <mxGeometry x="-180" y="25" width="120" height="60" as="geometry" />
        </mxCell>
        <mxCell id="76nuOp_ZVuQSCUPgEHM--106" value="Список лекарств" style="text;html=1;strokeColor=none;fillColor=none;align=center;verticalAlign=middle;whiteSpace=wrap;rounded=0;" vertex="1" parent="WIyWlLk6GJQsqaUBKTNV-1">
          <mxGeometry x="1055" y="585" width="60" height="30" as="geometry" />
        </mxCell>
        <mxCell id="76nuOp_ZVuQSCUPgEHM--107" value="" style="endArrow=classic;html=1;rounded=0;entryX=0.017;entryY=0.117;entryDx=0;entryDy=0;exitX=1;exitY=0.5;exitDx=0;exitDy=0;entryPerimeter=0;" edge="1" parent="WIyWlLk6GJQsqaUBKTNV-1" source="76nuOp_ZVuQSCUPgEHM--106" target="76nuOp_ZVuQSCUPgEHM--58">
          <mxGeometry width="50" height="50" relative="1" as="geometry">
            <mxPoint x="830" y="480" as="sourcePoint" />
            <mxPoint x="880" y="430" as="targetPoint" />
          </mxGeometry>
        </mxCell>
        <mxCell id="76nuOp_ZVuQSCUPgEHM--108" value="" style="endArrow=classic;html=1;rounded=0;entryX=0.5;entryY=0;entryDx=0;entryDy=0;" edge="1" parent="WIyWlLk6GJQsqaUBKTNV-1" target="76nuOp_ZVuQSCUPgEHM--58">
          <mxGeometry width="50" height="50" relative="1" as="geometry">
            <mxPoint x="1310" y="520" as="sourcePoint" />
            <mxPoint x="900" y="430" as="targetPoint" />
          </mxGeometry>
        </mxCell>
        <mxCell id="76nuOp_ZVuQSCUPgEHM--109" value="Закон РФ об ОЛС" style="text;html=1;strokeColor=none;fillColor=none;align=center;verticalAlign=middle;whiteSpace=wrap;rounded=0;" vertex="1" parent="WIyWlLk6GJQsqaUBKTNV-1">
          <mxGeometry x="1280" y="490" width="60" height="30" as="geometry" />
        </mxCell>
      </root>
    </mxGraphModel>
  </diagram>
</mxfile>
